<?xml version="1.0" encoding="UTF-8" standalone="no"?>
<svg
   xmlns:dc="http://purl.org/dc/elements/1.1/"
   xmlns:cc="http://creativecommons.org/ns#"
   xmlns:rdf="http://www.w3.org/1999/02/22-rdf-syntax-ns#"
   xmlns:svg="http://www.w3.org/2000/svg"
   xmlns="http://www.w3.org/2000/svg"
   xmlns:sodipodi="http://sodipodi.sourceforge.net/DTD/sodipodi-0.dtd"
   xmlns:inkscape="http://www.inkscape.org/namespaces/inkscape"
   width="264.58334mm"
   height="264.58334mm"
   viewBox="0 0 264.58334 264.58334"
   version="1.1"
   id="svg5"
   xml:space="preserve"
   inkscape:version="1.0.1 (3bc2e813f5, 2020-09-07)"
   sodipodi:docname="CZF.svg"
   inkscape:export-filename="C:\Users\great\Documents\mega\czodiac\logos-new\czf-vector\czf-512.png"
   inkscape:export-xdpi="47.999996"
   inkscape:export-ydpi="47.999996"><metadata
     id="metadata11"><rdf:RDF><cc:Work
         rdf:about=""><dc:format>image/svg+xml</dc:format><dc:type
           rdf:resource="http://purl.org/dc/dcmitype/StillImage" /><dc:title /></cc:Work></rdf:RDF></metadata><sodipodi:namedview
     id="namedview7"
     pagecolor="#ffffff"
     bordercolor="#666666"
     borderopacity="1.0"
     inkscape:showpageshadow="2"
     inkscape:pageopacity="0.0"
     inkscape:pagecheckerboard="0"
     inkscape:deskcolor="#d1d1d1"
     inkscape:document-units="mm"
     showgrid="false"
     inkscape:zoom="0.35355339"
     inkscape:cx="461.60918"
     inkscape:cy="740.88515"
     inkscape:window-width="3840"
     inkscape:window-height="2126"
     inkscape:window-x="3829"
     inkscape:window-y="-11"
     inkscape:window-maximized="1"
     inkscape:current-layer="layer1"
     inkscape:document-rotation="0" /><defs
     id="defs2" /><g
     inkscape:label="Layer 1"
     inkscape:groupmode="layer"
     id="layer1"
     transform="translate(1.329604,-13.637489)"><g
       id="g15461"
       transform="matrix(1.3444439,0,0,1.4001634,-38.097582,-38.458834)"><path
         id="path1186"
         style="font-variation-settings:normal;opacity:1;fill:#4ed33d;fill-opacity:1;fill-rule:evenodd;stroke-width:1.44088;stroke-linecap:butt;stroke-linejoin:bevel;stroke-miterlimit:4;stroke-dasharray:none;stroke-dashoffset:0;stroke-opacity:0.768627;paint-order:stroke fill markers;stop-color:#000000;stop-opacity:1"
         d="m 27.348749,139.57916 a 98.4524,87.931671 0 0 0 3.802869,22.75416 H 220.33904 a 98.4524,87.931671 0 0 0 3.80286,-22.75416 z m 5.588289,27.78125 a 98.4524,87.931671 0 0 0 18.183386,28.12748 H 200.37023 a 98.4524,87.931671 0 0 0 18.18339,-28.12748 z M 55.7527,199.97805 a 98.4524,87.931671 0 0 0 70.00813,26.1922 98.4524,87.931671 0 0 0 69.97712,-26.1922 z" /><path
         style="opacity:1;fill:#b2a15c;fill-opacity:1;stroke:none;stroke-width:0.264583px;stroke-linecap:butt;stroke-linejoin:miter;stroke-opacity:1"
         d="m 64.680857,138.27278 h 6.548438 l 51.064585,-49.113286 -6.35,16.982946 9.71084,0.2745 -17.5822,23.98449 33.13907,-22.48959 5.32473,4.00183 1.05455,8.90909 -0.1637,6.24409 5.78988,-3.14772 9.06198,8.4336 15.875,6.01927 h 4.66328 L 124.06314,79.617815 Z"
         id="path7586" /><path
         id="path8337"
         style="font-variation-settings:normal;opacity:1;fill:#ffc90d;fill-opacity:1;fill-rule:evenodd;stroke-width:1.77765;stroke-linecap:butt;stroke-linejoin:bevel;stroke-miterlimit:4;stroke-dasharray:none;stroke-dashoffset:0;stroke-opacity:0.768627;paint-order:stroke fill markers;stop-color:#000000;stop-opacity:1"
         d="m 125.71019,63.82409 a 74.461296,74.461296 0 0 0 -74.425951,74.4616 H 200.2059 v -0.046 a 74.461296,74.461296 0 0 0 -74.49571,-74.4156 z m -1.80713,13.096358 61.36473,61.364732 H 62.151792 Z" /></g></g></svg>
