<?xml version="1.0" encoding="UTF-8" standalone="no"?>
<svg
   xmlns:dc="http://purl.org/dc/elements/1.1/"
   xmlns:cc="http://creativecommons.org/ns#"
   xmlns:rdf="http://www.w3.org/1999/02/22-rdf-syntax-ns#"
   xmlns:svg="http://www.w3.org/2000/svg"
   xmlns="http://www.w3.org/2000/svg"
   xmlns:sodipodi="http://sodipodi.sourceforge.net/DTD/sodipodi-0.dtd"
   xmlns:inkscape="http://www.inkscape.org/namespaces/inkscape"
   version="1.1"
   id="svg182"
   width="200"
   height="200"
   viewBox="0 0 200 200"
   sodipodi:docname="CZUSD.svg"
   inkscape:version="1.0.1 (3bc2e813f5, 2020-09-07)"
   inkscape:export-filename="C:\Users\great\Desktop\czusd-256.png"
   inkscape:export-xdpi="122.88"
   inkscape:export-ydpi="122.88">
  <metadata
     id="metadata7">
    <rdf:RDF>
      <cc:Work
         rdf:about="">
        <dc:format>image/svg+xml</dc:format>
        <dc:type
           rdf:resource="http://purl.org/dc/dcmitype/StillImage" />
      </cc:Work>
    </rdf:RDF>
  </metadata>
  <defs
     id="defs186" />
  <sodipodi:namedview
     id="namedview184"
     pagecolor="#ffffff"
     bordercolor="#666666"
     borderopacity="1.0"
     inkscape:showpageshadow="2"
     inkscape:pageopacity="0.0"
     inkscape:pagecheckerboard="0"
     inkscape:deskcolor="#d1d1d1"
     showgrid="false"
     inkscape:zoom="5.6568543"
     inkscape:cx="121.26479"
     inkscape:cy="123.70084"
     inkscape:window-width="3840"
     inkscape:window-height="2126"
     inkscape:window-x="3829"
     inkscape:window-y="-11"
     inkscape:window-maximized="1"
     inkscape:current-layer="g188"
     inkscape:document-rotation="0" />
  <g
     inkscape:groupmode="layer"
     inkscape:label="Image"
     id="g188">
    <g
       id="g917"
       transform="matrix(1.426661,0,0,1.426661,-2.1311908e-7,0.6213783)">
      <g
         id="g880"
         transform="translate(-35.85085,-39.402097)">
        <path
           id="path837"
           style="fill:#ffc90d;fill-opacity:1;stroke:none;stroke-width:1.19117;stroke-opacity:1"
           d="m 102.32031,38.814453 c -38.711803,-2.4e-5 -70.093892,31.558702 -70.093748,70.488277 1.17e-4,0.87393 0.0164,1.74778 0.04883,2.6211 H 64.941406 C 55.731588,109.52694 54.125,101.1875 54.125,101.1875 L 70.025391,101.95508 70,99 67.3125,98.96875 67.34375,94.8125 99.964844,94.273438 c -0.238626,1.663831 -0.564912,3.194699 -1.267578,4.748046 L 72.3125,99.03125 v 2.75 c 10.838388,0.28347 21.544194,0.30178 32.25,0.1875 l 0.125,-6.84375 -1.71875,-0.0625 0.10352,-4.783203 35.13085,-1.716797 c -0.21906,2.127528 -0.74793,4.166667 -1.45312,6.25 l -28.5,0.3125 -0.0625,6.68359 c 5.23527,-0.35016 10.60217,-0.5228 15.57227,-1.58007 L 124,96.3125 145.67969,95.974609 c 0,0 0.81573,7.511941 0.28711,9.466801 -0.68757,2.5427 -1.37641,4.93536 -2.18164,6.48242 h 28.58007 c 0.0324,-0.87332 0.0487,-1.74717 0.0488,-2.6211 1.4e-4,-38.929576 -31.38195,-70.488303 -70.09375,-70.488277 z m 21.82031,10.240235 c 3.19185,2.227113 6.17085,5.148914 7.91211,8.486328 L 103.06055,70.533203 102.92773,66.291016 104.91602,64.65625 104.74023,59 l 1.90649,-0.06682 0.17689,4.521123 z m -34.205073,8.08789 c 2.314865,2.068063 4.297448,4.530726 5.744141,7.205078 l -28.15625,14.31836 0.01562,-4.673828 2.611329,-2.330079 -0.121094,-4.509765 2.105469,-0.15625 0.07813,3.339844 z m 43.353513,2.033203 c 2.53379,4.095326 4.31291,8.279798 5.07895,13.877727 l -35.28848,6.695129 -0.019,-7.402934 z m -36.50781,6.914063 c 2.202343,4.699314 3.57737,9.272801 3.92356,14.060503 l -33.056645,5.961571 -0.120817,-5.695902 z m 42.07617,9.216797 c 0.29463,3.830162 0.28067,7.660072 -0.30859,11.490234 l -35.44336,2.121094 -0.0449,-7.205898 z m -38.00586,6.761718 c 0.39806,3.593936 0.13451,7.04576 -0.506,10.661793 l -32.997086,0.728429 0.116372,-5.730063 z"
           transform="translate(3.6242885,0.15209675)"
           sodipodi:nodetypes="ccccccccccccccccccccccccsccccccccccccccccccccccccccccccccccccccccccc" />
        <path
           id="path834"
           style="fill:#d3473d;fill-opacity:1;stroke:none;stroke-width:1.19117;stroke-opacity:1"
           d="m 36.134437,115.78339 a 70.093704,70.488014 0 0 0 2.755859,14.20703 H 172.99967 a 70.093704,70.488014 0 0 0 2.75781,-14.20703 z m 4.658203,19.67382 a 70.093704,70.488014 0 0 0 8.638672,15.70118 H 162.4606 a 70.093704,70.488014 0 0 0 8.63867,-15.70118 z m 13.957031,22.15039 a 70.093704,70.488014 0 0 0 24.984375,17.22852 h 52.421864 a 70.093704,70.488014 0 0 0 24.98634,-17.22852 z" />
      </g>
    </g>
  </g>
</svg>
